<svg width="1024" height="1024" viewBox="0 0 1024 1024" fill="none" xmlns="http://www.w3.org/2000/svg" role="img" aria-labelledby="title desc">
  <title id="title">Plataforma de Inteligência Industrial</title>
  <desc id="desc">Ícone com engrenagem industrial, letra M da Mundial, conectividade e gráfico de dados.</desc>
  <defs>
    <linearGradient id="gear" x1="154" y1="122" x2="730" y2="858" gradientUnits="userSpaceOnUse">
      <stop stop-color="#4B5563"/>
      <stop offset="1" stop-color="#111827"/>
    </linearGradient>
    <linearGradient id="red" x1="660" y1="268" x2="916" y2="778" gradientUnits="userSpaceOnUse">
      <stop stop-color="#EF4444"/>
      <stop offset="1" stop-color="#B91C1C"/>
    </linearGradient>
  </defs>
  <path fill="url(#gear)" fill-rule="evenodd" clip-rule="evenodd" d="M410 82h130l25 101c29 8 57 20 82 35l89-54 92 92-54 89c15 25 27 53 35 82l101 25v130l-101 25c-8 29-20 57-35 82l54 89-92 92-89-54c-25 15-53 27-82 35l-25 101H410l-25-101c-29-8-57-20-82-35l-89 54-92-92 54-89c-15-25-27-53-35-82L40 582V452l101-25c8-29 20-57 35-82l-54-89 92-92 89 54c25-15 53-27 82-35L410 82Zm65 175c-143 0-260 117-260 260s117 260 260 260 260-117 260-260-117-260-260-260Z"/>
  <path d="M300 708V348l118 118 118-118v360" stroke="#111827" stroke-width="42" stroke-linecap="round" stroke-linejoin="round"/>
  <path d="M300 348l118 118 118-118" stroke="#F9FAFB" stroke-width="16" stroke-linecap="round" stroke-linejoin="round"/>
  <path d="M246 322l54 26M246 322v162M246 484v116M536 348v252M536 600v108M536 348l78-62M614 286l70 72M684 358v156M684 514l96-88M780 426l100-100" stroke="#111827" stroke-width="32" stroke-linecap="round" stroke-linejoin="round"/>
  <circle cx="246" cy="322" r="35" fill="#F9FAFB" stroke="#111827" stroke-width="24"/>
  <circle cx="246" cy="600" r="35" fill="#111827"/>
  <circle cx="536" cy="348" r="35" fill="#F9FAFB" stroke="url(#red)" stroke-width="24"/>
  <circle cx="536" cy="600" r="33" fill="#111827"/>
  <circle cx="684" cy="358" r="33" fill="#F9FAFB" stroke="#111827" stroke-width="22"/>
  <circle cx="684" cy="514" r="33" fill="#F9FAFB" stroke="#111827" stroke-width="22"/>
  <circle cx="880" cy="326" r="45" fill="url(#red)"/>
  <path d="M650 716V584h74v132h-74Zm102 0V500h74v216h-74Zm102 0V408h74v308h-74Z" fill="url(#red)"/>
  <path d="M300 708h624" stroke="#111827" stroke-width="42" stroke-linecap="round"/>
</svg>
