<svg width="520" height="150" viewBox="0 0 520 150" fill="none" xmlns="http://www.w3.org/2000/svg">
  <rect width="520" height="150" fill="transparent"/>
  <g fill="#5F686B">
    <text x="18" y="104" font-family="Arial Black, Arial, sans-serif" font-size="66" font-weight="900" letter-spacing="-3">Mundial SA</text>
  </g>
  <g transform="translate(388 24)">
    <circle cx="58" cy="48" r="7" fill="#E60019"/>
    <circle cx="34" cy="48" r="6" fill="#E60019"/>
    <circle cx="82" cy="48" r="6" fill="#E60019"/>
    <circle cx="58" cy="24" r="6" fill="#E60019"/>
    <circle cx="58" cy="72" r="6" fill="#E60019"/>
    <circle cx="39" cy="29" r="5" fill="#E60019"/>
    <circle cx="77" cy="29" r="5" fill="#E60019"/>
    <circle cx="39" cy="67" r="5" fill="#E60019"/>
    <circle cx="77" cy="67" r="5" fill="#E60019"/>
    <circle cx="20" cy="48" r="4.6" fill="#E60019"/>
    <circle cx="96" cy="48" r="4.6" fill="#E60019"/>
    <circle cx="58" cy="10" r="4.2" fill="#E60019"/>
    <circle cx="58" cy="86" r="4.2" fill="#E60019"/>
    <circle cx="27" cy="18" r="3.8" fill="#E60019"/>
    <circle cx="89" cy="18" r="3.8" fill="#E60019"/>
    <circle cx="27" cy="78" r="3.8" fill="#E60019"/>
    <circle cx="89" cy="78" r="3.8" fill="#E60019"/>
    <circle cx="12" cy="32" r="3.4" fill="#E60019"/>
    <circle cx="104" cy="32" r="3.4" fill="#E60019"/>
    <circle cx="12" cy="64" r="3.4" fill="#E60019"/>
    <circle cx="104" cy="64" r="3.4" fill="#E60019"/>
    <circle cx="6" cy="48" r="2.8" fill="#E60019"/>
    <circle cx="110" cy="48" r="2.8" fill="#E60019"/>
    <ellipse cx="58" cy="48" rx="54" ry="39" stroke="#E60019" stroke-width="2" stroke-dasharray="6 8" opacity="0.55"/>
    <ellipse cx="58" cy="48" rx="33" ry="52" stroke="#E60019" stroke-width="2" stroke-dasharray="5 9" opacity="0.35" transform="rotate(90 58 48)"/>
  </g>
</svg>
